<svg width="1514" height="805" xmlns="http://www.w3.org/2000/svg"><g><path d="M-81,-133L-114,336L-59,70Z" fill="#e54834" stroke="#e54834"/><path d="M-81,-133L-59,70L30,-132Z" fill="#e8171d" stroke="#e8171d"/><path d="M-81,-133L30,-132L1694,-134Z" fill="#ff6e46" stroke="#ff6e46"/><path d="M30,-132L-59,70L55,72Z" fill="#ec372c" stroke="#ec372c"/><path d="M30,-132L55,72L167,-20Z" fill="#f2392c" stroke="#f2392c"/><path d="M30,-132L167,-20L425,-120Z" fill="#fa3a2b" stroke="#fa3a2b"/><path d="M30,-132L425,-120L1440,-130Z" fill="#fa735b" stroke="#fa735b"/><path d="M30,-132L1440,-130L1694,-134Z" fill="#c5606e" stroke="#c5606e"/><path d="M167,-20L55,72L242,127Z" fill="#f76340" stroke="#f76340"/><path d="M167,-20L242,127L421,38Z" fill="#fc7448" stroke="#fc7448"/><path d="M167,-20L421,38L425,-120Z" fill="#fd603f" stroke="#fd603f"/><path d="M425,-120L421,38L557,-35Z" fill="#fe724c" stroke="#fe724c"/><path d="M425,-120L557,-35L615,-110Z" fill="#ff6c4c" stroke="#ff6c4c"/><path d="M425,-120L615,-110L1440,-130Z" fill="#e6757c" stroke="#e6757c"/><path d="M557,-35L421,38L473,57Z" fill="#ff8958" stroke="#ff8958"/><path d="M557,-35L473,57L637,84Z" fill="#ff9864" stroke="#ff9864"/><path d="M557,-35L637,84L615,-110Z" fill="#fc8765" stroke="#fc8765"/><path d="M615,-110L637,84L852,-40Z" fill="#f48b80" stroke="#f48b80"/><path d="M615,-110L852,-40L946,-80Z" fill="#e97784" stroke="#e97784"/><path d="M615,-110L946,-80L1440,-130Z" fill="#cd6676" stroke="#cd6676"/><path d="M852,-40L637,84L870,15Z" fill="#ec9b96" stroke="#ec9b96"/><path d="M852,-40L870,15L946,-80Z" fill="#dd8188" stroke="#dd8188"/><path d="M946,-80L870,15L989,72Z" fill="#d78b8d" stroke="#d78b8d"/><path d="M946,-80L989,72L1126,-38Z" fill="#ca7b85" stroke="#ca7b85"/><path d="M946,-80L1126,-38L1440,-130Z" fill="#b5526f" stroke="#b5526f"/><path d="M1126,-38L989,72L1079,75Z" fill="#c4888a" stroke="#c4888a"/><path d="M1126,-38L1079,75L1230,63Z" fill="#b97e85" stroke="#b97e85"/><path d="M1126,-38L1230,63L1244,-22Z" fill="#b26a7b" stroke="#b26a7b"/><path d="M1126,-38L1244,-22L1440,-130Z" fill="#a9486b" stroke="#a9486b"/><path d="M1244,-22L1230,63L1402,110Z" fill="#a66f7c" stroke="#a66f7c"/><path d="M1244,-22L1402,110L1440,-130Z" fill="#9e4d6c" stroke="#9e4d6c"/><path d="M1440,-130L1402,110L1585,78Z" fill="#904869" stroke="#904869"/><path d="M1440,-130L1585,78L1622,-99Z" fill="#862458" stroke="#862458"/><path d="M1440,-130L1622,-99L1694,-134Z" fill="#821449" stroke="#821449"/><path d="M1622,-99L1585,78L1732,24Z" fill="#802859" stroke="#802859"/><path d="M1622,-99L1732,24L1694,-134Z" fill="#80094a" stroke="#80094a"/><path d="M-59,70L-114,336L-66,177Z" fill="#e57046" stroke="#e57046"/><path d="M-59,70L-66,177L55,72Z" fill="#e9573b" stroke="#e9573b"/><path d="M55,72L-66,177L99,227Z" fill="#ed7448" stroke="#ed7448"/><path d="M55,72L99,227L242,127Z" fill="#f57f4d" stroke="#f57f4d"/><path d="M242,127L99,227L254,172Z" fill="#fa9657" stroke="#fa9657"/><path d="M242,127L254,172L421,38Z" fill="#fd9055" stroke="#fd9055"/><path d="M421,38L254,172L406,281Z" fill="#fead62" stroke="#fead62"/><path d="M421,38L406,281L473,57Z" fill="#fea964" stroke="#fea964"/><path d="M473,57L406,281L543,254Z" fill="#ffca76" stroke="#ffca76"/><path d="M473,57L543,254L637,84Z" fill="#ffbb74" stroke="#ffbb74"/><path d="M637,84L543,254L688,188Z" fill="#fad18c" stroke="#fad18c"/><path d="M637,84L688,188L817,185Z" fill="#f3cda1" stroke="#f3cda1"/><path d="M637,84L817,185L870,15Z" fill="#edb8a3" stroke="#edb8a3"/><path d="M870,15L817,185L989,72Z" fill="#ddae9d" stroke="#ddae9d"/><path d="M989,72L817,185L945,241Z" fill="#d9c9a9" stroke="#d9c9a9"/><path d="M989,72L945,241L1138,188Z" fill="#cabea3" stroke="#cabea3"/><path d="M989,72L1138,188L1079,75Z" fill="#c3a497" stroke="#c3a497"/><path d="M1079,75L1138,188L1230,63Z" fill="#b89991" stroke="#b89991"/><path d="M1230,63L1138,188L1242,179Z" fill="#b19e93" stroke="#b19e93"/><path d="M1230,63L1242,179L1402,110Z" fill="#a68788" stroke="#a68788"/><path d="M1402,110L1242,179L1442,239Z" fill="#9e938c" stroke="#9e938c"/><path d="M1402,110L1442,239L1593,199Z" fill="#8f8485" stroke="#8f8485"/><path d="M1402,110L1593,199L1585,78Z" fill="#896978" stroke="#896978"/><path d="M1585,78L1593,199L1708,209Z" fill="#806675" stroke="#806675"/><path d="M1585,78L1708,209L1732,24Z" fill="#804968" stroke="#804968"/><path d="M1732,24L1708,209L1760,342Z" fill="#806473" stroke="#806473"/><path d="M-66,177L-114,336L99,227Z" fill="#e98658" stroke="#e98658"/><path d="M99,227L-114,336L122,358Z" fill="#ee9d6e" stroke="#ee9d6e"/><path d="M99,227L122,358L254,172Z" fill="#f7a567" stroke="#f7a567"/><path d="M254,172L122,358L263,414Z" fill="#faba7f" stroke="#faba7f"/><path d="M254,172L263,414L357,328Z" fill="#fcc881" stroke="#fcc881"/><path d="M254,172L357,328L406,281Z" fill="#fdc678" stroke="#fdc678"/><path d="M406,281L357,328L548,350Z" fill="#fede96" stroke="#fede96"/><path d="M406,281L548,350L543,254Z" fill="#ffe594" stroke="#ffe594"/><path d="M543,254L548,350L636,388Z" fill="#fef0ac" stroke="#fef0ac"/><path d="M543,254L636,388L688,188Z" fill="#faeca6" stroke="#faeca6"/><path d="M688,188L636,388L768,330Z" fill="#f4f6c2" stroke="#f4f6c2"/><path d="M688,188L768,330L817,185Z" fill="#f0e9bf" stroke="#f0e9bf"/><path d="M817,185L768,330L945,241Z" fill="#e4e7c1" stroke="#e4e7c1"/><path d="M945,241L768,330L946,347Z" fill="#def0cf" stroke="#def0cf"/><path d="M945,241L946,347L1138,188Z" fill="#ccdabb" stroke="#ccdabb"/><path d="M1138,188L946,347L1132,425Z" fill="#c3deca" stroke="#c3deca"/><path d="M1138,188L1132,425L1284,380Z" fill="#b4cfc7" stroke="#b4cfc7"/><path d="M1138,188L1284,380L1242,179Z" fill="#afbda9" stroke="#afbda9"/><path d="M1242,179L1284,380L1402,351Z" fill="#a4bdb2" stroke="#a4bdb2"/><path d="M1242,179L1402,351L1442,239Z" fill="#9eaaa0" stroke="#9eaaa0"/><path d="M1442,239L1402,351L1540,327Z" fill="#91a6a7" stroke="#91a6a7"/><path d="M1442,239L1540,327L1593,199Z" fill="#899293" stroke="#899293"/><path d="M1593,199L1540,327L1708,209Z" fill="#80828a" stroke="#80828a"/><path d="M1708,209L1540,327L1760,342Z" fill="#808593" stroke="#808593"/><path d="M-114,336L-32,987L-90,498Z" fill="#aa728a" stroke="#aa728a"/><path d="M-114,336L-90,498L75,499Z" fill="#dd9190" stroke="#dd9190"/><path d="M-114,336L75,499L122,358Z" fill="#ed9c93" stroke="#ed9c93"/><path d="M122,358L75,499L263,414Z" fill="#f1b09f" stroke="#f1b09f"/><path d="M263,414L75,499L227,559Z" fill="#e3b6a1" stroke="#e3b6a1"/><path d="M263,414L227,559L419,525Z" fill="#e4caaa" stroke="#e4caaa"/><path d="M263,414L419,525L357,328Z" fill="#f8d1ae" stroke="#f8d1ae"/><path d="M357,328L419,525L548,350Z" fill="#fedfb8" stroke="#fedfb8"/><path d="M548,350L419,525L553,543Z" fill="#ede8c0" stroke="#ede8c0"/><path d="M548,350L553,543L636,388Z" fill="#f8f0cb" stroke="#f8f0cb"/><path d="M636,388L553,543L673,555Z" fill="#e3f2d6" stroke="#e3f2d6"/><path d="M636,388L673,555L784,555Z" fill="#dcf6eb" stroke="#dcf6eb"/><path d="M636,388L784,555L768,330Z" fill="#ecf8f4" stroke="#ecf8f4"/><path d="M768,330L784,555L946,347Z" fill="#e3f4f9" stroke="#e3f4f9"/><path d="M946,347L784,555L918,571Z" fill="#c8f1f7" stroke="#c8f1f7"/><path d="M946,347L918,571L1101,485Z" fill="#bfe7f2" stroke="#bfe7f2"/><path d="M946,347L1101,485L1132,425Z" fill="#c1dfed" stroke="#c1dfed"/><path d="M1132,425L1101,485L1295,494Z" fill="#a4d0e5" stroke="#a4d0e5"/><path d="M1132,425L1295,494L1284,380Z" fill="#a6c7e0" stroke="#a6c7e0"/><path d="M1284,380L1295,494L1420,492Z" fill="#94b9d9" stroke="#94b9d9"/><path d="M1284,380L1420,492L1402,351Z" fill="#9bb4d6" stroke="#9bb4d6"/><path d="M1402,351L1420,492L1540,327Z" fill="#92a7cb" stroke="#92a7cb"/><path d="M1540,327L1420,492L1627,520Z" fill="#7e9cca" stroke="#7e9cca"/><path d="M1540,327L1627,520L1760,342Z" fill="#808bbf" stroke="#808bbf"/><path d="M1760,342L1627,520L1710,572Z" fill="#6d83bd" stroke="#6d83bd"/><path d="M1760,342L1710,572L1733,731Z" fill="#5775b9" stroke="#5775b9"/><path d="M1760,342L1733,731L1740,980Z" fill="#2f4ca9" stroke="#2f4ca9"/><path d="M-90,498L-32,987L-34,767Z" fill="#844673" stroke="#844673"/><path d="M-90,498L-34,767L-39,619Z" fill="#a66e88" stroke="#a66e88"/><path d="M-90,498L-39,619L75,499Z" fill="#c58c91" stroke="#c58c91"/><path d="M75,499L-39,619L97,730Z" fill="#b18292" stroke="#b18292"/><path d="M75,499L97,730L227,559Z" fill="#bd979a" stroke="#bd979a"/><path d="M227,559L97,730L257,648Z" fill="#b49198" stroke="#b49198"/><path d="M227,559L257,648L374,653Z" fill="#bda9a3" stroke="#bda9a3"/><path d="M227,559L374,653L419,525Z" fill="#cbbeab" stroke="#cbbeab"/><path d="M419,525L374,653L533,620Z" fill="#c5c8b5" stroke="#c5c8b5"/><path d="M419,525L533,620L553,543Z" fill="#d2d9be" stroke="#d2d9be"/><path d="M553,543L533,620L673,555Z" fill="#cde0cb" stroke="#cde0cb"/><path d="M673,555L533,620L682,653Z" fill="#bed8d5" stroke="#bed8d5"/><path d="M673,555L682,653L784,555Z" fill="#bee3ed" stroke="#bee3ed"/><path d="M784,555L682,653L817,719Z" fill="#aad3f2" stroke="#aad3f2"/><path d="M784,555L817,719L918,571Z" fill="#a7d8f3" stroke="#a7d8f3"/><path d="M918,571L817,719L964,669Z" fill="#94c6eb" stroke="#94c6eb"/><path d="M918,571L964,669L1101,485Z" fill="#9dd5ef" stroke="#9dd5ef"/><path d="M1101,485L964,669L1131,724Z" fill="#83bee6" stroke="#83bee6"/><path d="M1101,485L1131,724L1295,494Z" fill="#86c1e3" stroke="#86c1e3"/><path d="M1295,494L1131,724L1323,733Z" fill="#649dd5" stroke="#649dd5"/><path d="M1295,494L1323,733L1436,660Z" fill="#5d95d0" stroke="#5d95d0"/><path d="M1295,494L1436,660L1420,492Z" fill="#72a7d4" stroke="#72a7d4"/><path d="M1420,492L1436,660L1627,520Z" fill="#6294cb" stroke="#6294cb"/><path d="M1627,520L1436,660L1630,691Z" fill="#4478c1" stroke="#4478c1"/><path d="M1627,520L1630,691L1710,572Z" fill="#4873be" stroke="#4873be"/><path d="M1710,572L1630,691L1733,731Z" fill="#3457b0" stroke="#3457b0"/><path d="M-39,619L-34,767L97,730Z" fill="#955f80" stroke="#955f80"/><path d="M97,730L-34,767L84,794Z" fill="#885279" stroke="#885279"/><path d="M97,730L84,794L208,856Z" fill="#86557a" stroke="#86557a"/><path d="M97,730L208,856L257,648Z" fill="#986e86" stroke="#986e86"/><path d="M257,648L208,856L377,859Z" fill="#8e7086" stroke="#8e7086"/><path d="M257,648L377,859L374,653Z" fill="#a29096" stroke="#a29096"/><path d="M374,653L377,859L511,778Z" fill="#978f97" stroke="#978f97"/><path d="M374,653L511,778L533,620Z" fill="#aeb0ab" stroke="#aeb0ab"/><path d="M533,620L511,778L682,653Z" fill="#aebdb9" stroke="#aebdb9"/><path d="M682,653L511,778L666,790Z" fill="#9aacbc" stroke="#9aacbc"/><path d="M682,653L666,790L817,719Z" fill="#98b8db" stroke="#98b8db"/><path d="M817,719L666,790L856,774Z" fill="#86abdd" stroke="#86abdd"/><path d="M817,719L856,774L964,669Z" fill="#84b1e0" stroke="#84b1e0"/><path d="M964,669L856,774L923,822Z" fill="#75a3d9" stroke="#75a3d9"/><path d="M964,669L923,822L1093,780Z" fill="#699bd4" stroke="#699bd4"/><path d="M964,669L1093,780L1131,724Z" fill="#689ed5" stroke="#689ed5"/><path d="M1131,724L1093,780L1304,876Z" fill="#4579c2" stroke="#4579c2"/><path d="M1131,724L1304,876L1323,733Z" fill="#4072bf" stroke="#4072bf"/><path d="M1323,733L1304,876L1386,840Z" fill="#2b59b2" stroke="#2b59b2"/><path d="M1323,733L1386,840L1436,660Z" fill="#3a6aba" stroke="#3a6aba"/><path d="M1436,660L1386,840L1630,691Z" fill="#3160b5" stroke="#3160b5"/><path d="M1630,691L1386,840L1627,883Z" fill="#143ea4" stroke="#143ea4"/><path d="M1630,691L1627,883L1685,813Z" fill="#10329e" stroke="#10329e"/><path d="M1630,691L1685,813L1733,731Z" fill="#1e3ea3" stroke="#1e3ea3"/><path d="M1733,731L1685,813L1740,980Z" fill="#031891" stroke="#031891"/><path d="M-34,767L-32,987L84,794Z" fill="#6d2e67" stroke="#6d2e67"/><path d="M84,794L-32,987L29,1033Z" fill="#6e1d5a" stroke="#6e1d5a"/><path d="M84,794L29,1033L208,856Z" fill="#743067" stroke="#743067"/><path d="M208,856L29,1033L242,1031Z" fill="#78325e" stroke="#78325e"/><path d="M208,856L242,1031L359,952Z" fill="#7c456b" stroke="#7c456b"/><path d="M208,856L359,952L377,859Z" fill="#7d5478" stroke="#7d5478"/><path d="M377,859L359,952L546,953Z" fill="#7f5e7e" stroke="#7f5e7e"/><path d="M377,859L546,953L511,778Z" fill="#7f758e" stroke="#7f758e"/><path d="M511,778L546,953L666,790Z" fill="#82899f" stroke="#82899f"/><path d="M666,790L546,953L685,1027Z" fill="#7a73a0" stroke="#7a73a0"/><path d="M666,790L685,1027L873,924Z" fill="#7179c0" stroke="#7179c0"/><path d="M666,790L873,924L856,774Z" fill="#7093d1" stroke="#7093d1"/><path d="M856,774L873,924L923,822Z" fill="#628acc" stroke="#628acc"/><path d="M923,822L873,924L971,924Z" fill="#5976c2" stroke="#5976c2"/><path d="M923,822L971,924L1093,780Z" fill="#517fc6" stroke="#517fc6"/><path d="M1093,780L971,924L1093,922Z" fill="#466dbd" stroke="#466dbd"/><path d="M1093,780L1093,922L1236,936Z" fill="#3a61b6" stroke="#3a61b6"/><path d="M1093,780L1236,936L1304,876Z" fill="#315cb3" stroke="#315cb3"/><path d="M1304,876L1236,936L1369,1005Z" fill="#253ea0" stroke="#253ea0"/><path d="M1304,876L1369,1005L1386,840Z" fill="#1f39a2" stroke="#1f39a2"/><path d="M1386,840L1369,1005L1551,1026Z" fill="#152a93" stroke="#152a93"/><path d="M1386,840L1551,1026L1627,883Z" fill="#0a1e93" stroke="#0a1e93"/><path d="M1627,883L1551,1026L1740,980Z" fill="#000c82" stroke="#000c82"/><path d="M1627,883L1740,980L1685,813Z" fill="#000d8b" stroke="#000d8b"/><path d="M29,1033L1551,1026L242,1031Z" fill="#7c7288" stroke="#7c7288"/><path d="M242,1031L1551,1026L685,1027Z" fill="#6775af" stroke="#6775af"/><path d="M242,1031L685,1027L546,953Z" fill="#7f6678" stroke="#7f6678"/><path d="M242,1031L546,953L359,952Z" fill="#7f586e" stroke="#7f586e"/><path d="M685,1027L1551,1026L1369,1005Z" fill="#324d9a" stroke="#324d9a"/><path d="M685,1027L1369,1005L1093,922Z" fill="#4761aa" stroke="#4761aa"/><path d="M685,1027L1093,922L971,924Z" fill="#5a6fb6" stroke="#5a6fb6"/><path d="M685,1027L971,924L873,924Z" fill="#6474b9" stroke="#6474b9"/><path d="M1093,922L1369,1005L1236,936Z" fill="#2e48a3" stroke="#2e48a3"/></g></svg>